<svg width="15" height="14" viewBox="0 0 15 14" fill="none" xmlns="http://www.w3.org/2000/svg">
<path d="M14.493 13.4666L9.76156 8.74053C10.5874 7.81153 11.0938 6.59362 11.0938 5.25636C11.0938 2.35782 8.73349 0 5.83215 0C2.93059 0 0.570312 2.35782 0.570312 5.25636C0.570312 8.15469 2.93059 10.5125 5.83215 10.5125C7.17058 10.5125 8.38998 10.0067 9.31994 9.18169L14.0509 13.9082C14.1117 13.9689 14.192 13.9996 14.2719 13.9996C14.352 13.9996 14.4323 13.9689 14.493 13.9082C14.6154 13.7858 14.6154 13.5886 14.493 13.4666ZM5.83215 9.88799C3.27543 9.88799 1.19548 7.81042 1.19548 5.25636C1.19548 2.7023 3.27543 0.624514 5.83215 0.624514C8.38865 0.624514 10.4686 2.7023 10.4686 5.25636C10.4686 6.42116 10.033 7.48394 9.31994 8.2987C9.18223 8.45561 9.03495 8.60273 8.87788 8.7403C8.06227 9.45283 6.99816 9.88799 5.83215 9.88799Z" fill="#D8D8D8"/>
</svg>
